<?xml version="1.0" encoding="utf-8"?><svg xml:space="preserve" viewBox="0 0 100 100" y="0" x="0" xmlns="http://www.w3.org/2000/svg" id="圖層_1" version="1.1" width="600px" height="500px" xmlns:xlink="http://www.w3.org/1999/xlink" style="width:100%;height:100%;background-size:initial;background-repeat-y:initial;background-repeat-x:initial;background-position-y:initial;background-position-x:initial;background-origin:initial;background-image:initial;background-color:none;background-clip:initial;background-attachment:initial;animation-play-state:paused" ><g class="ldl-scale" style="transform-origin:50% 50%;transform:rotate(0deg) scale(0.8, 0.8);animation-play-state:paused" ><g style="animation-play-state:paused" ><path d="M38.122 7.5v3.476h42.006V7.5z" fill="#333" style="fill:rgb(51, 51, 51);animation-play-state:paused" ></path>
<path d="M38.122 24.711V92.5h42.006V22.973H38.122z" fill="#333" style="fill:rgb(51, 51, 51);animation-play-state:paused" ></path></g>
<path fill="#e15b64" d="M29.347 7.5c-5.225 0-9.475 4.25-9.475 9.475v66.63l.029 1.738h.266c1.044 4.121 4.804 7.157 9.18 7.157h8.776V22.973h-8.776c-3.308 0-5.999-2.691-5.999-5.998s2.691-5.998 5.999-5.998h8.776V7.5h-8.776z" style="fill:rgb(225, 91, 100);animation-play-state:paused" ></path>
<path fill="#e0e0e0" d="M38.122 10.976h-8.776c-3.308 0-5.999 2.691-5.999 5.998s2.691 5.998 5.999 5.998h47.161V10.976H38.122z" style="fill:rgb(224, 224, 224);animation-play-state:paused" ></path>
<path d="M76.507 10.976h3.621v11.996h-3.621z" fill="#666" style="fill:rgb(102, 102, 102);animation-play-state:paused" ></path>
<metadata xmlns:d="https://loading.io/stock/" style="animation-play-state:paused" ><d:name style="animation-play-state:paused" >book</d:name>
<d:tags style="animation-play-state:paused" >study,read,public,view,workbook,note,booklet,document,book,books</d:tags>
<d:license style="animation-play-state:paused" >pro</d:license>
<d:slug style="animation-play-state:paused" >bubxu7</d:slug></metadata></g><!-- generated by https://loading.io/ --></svg>